<svg version="1.1" id="Layer_1" xmlns="http://www.w3.org/2000/svg" xmlns:xlink="http://www.w3.org/1999/xlink" x="0px" y="0px"
	 width="100%" viewBox="0 0 81 85" enable-background="new 0 0 81 85" xml:space="preserve">
<path fill="#EFEFEF" opacity="1.000000" stroke="none" 
	d="
M22.000000,1.000000 
	C34.687561,1.000000 47.375122,1.000000 60.563828,1.331230 
	C61.375385,2.719800 61.685795,3.777140 61.532692,4.897254 
	C56.202030,4.960027 51.334888,4.960027 46.357990,4.960027 
	C46.131565,8.141799 45.958412,10.575012 45.355186,13.007291 
	C42.312763,13.012584 39.700409,13.018811 37.062187,12.577433 
	C36.875881,8.562941 38.369629,3.728630 31.257278,5.143757 
	C27.882767,5.033480 24.943222,4.934435 22.002518,4.451863 
	C22.000904,3.045557 22.000452,2.022779 22.000000,1.000000 
z"/>
<path fill="#EFEFEF" opacity="1.000000" stroke="none" 
	d="
M1.000000,68.000000 
	C1.000000,52.312439 1.000000,36.624878 1.331199,20.436190 
	C2.719629,19.624666 3.776860,19.314266 4.896966,19.468628 
	C4.917716,36.287590 4.875590,52.641792 4.503695,68.953186 
	C3.115950,68.606926 2.057975,68.303467 1.000000,68.000000 
z"/>
<path fill="#EFEFEF" opacity="1.000000" stroke="none" 
	d="
M65.000000,86.000000 
	C49.979103,86.000000 34.958210,86.000000 19.468786,85.627876 
	C19.000420,84.511505 19.000584,83.767265 19.449675,82.950966 
	C23.443132,82.836304 26.987663,82.793694 31.009151,82.835251 
	C36.159790,83.705475 39.002167,82.478867 38.420048,77.005638 
	C41.163654,76.998909 43.470009,76.994652 45.878799,77.394501 
	C46.060200,79.184258 46.139160,80.569893 46.209076,82.197510 
	C46.200035,82.439476 46.562553,82.760086 46.562553,82.760086 
	C46.562553,82.760086 47.043896,82.708733 47.506691,82.751663 
	C53.646053,82.871002 59.322620,82.947411 64.999268,83.395828 
	C64.999565,84.511902 64.999786,85.255951 65.000000,86.000000 
z"/>
<path fill="#EFEFEF" opacity="1.000000" stroke="none" 
	d="
M82.000000,20.000000 
	C82.000000,36.020893 82.000000,52.041790 81.625969,68.531189 
	C80.503883,68.999161 79.755836,68.998627 79.002884,68.529663 
	C79.000824,52.041363 79.003662,36.021488 79.380684,20.001177 
	C80.503242,20.000496 81.251625,20.000248 82.000000,20.000000 
z"/>
<path fill="#ECECEC" opacity="1.000000" stroke="none" 
	d="
M4.834090,19.003868 
	C3.776860,19.314266 2.719629,19.624666 1.331199,19.967533 
	C1.000000,13.736866 1.000000,7.473732 1.000000,1.000000 
	C7.685926,1.000000 14.374051,1.000000 21.531088,1.000000 
	C22.000452,2.022779 22.000904,3.045557 21.538122,4.517601 
	C15.838692,4.966867 10.602497,4.966867 4.834090,4.966867 
	C4.834090,10.117993 4.834090,14.560930 4.834090,19.003868 
z"/>
<path fill="#ECECEC" opacity="1.000000" stroke="none" 
	d="
M82.000000,19.530624 
	C81.251625,20.000248 80.503242,20.000496 79.374710,19.534016 
	C78.994469,16.139530 78.759331,13.188254 79.049332,10.289516 
	C79.486252,5.922208 77.889893,4.177413 73.105011,5.211029 
	C69.113976,5.080701 65.555092,4.957591 61.996208,4.834481 
	C61.685795,3.777140 61.375385,2.719800 61.032486,1.331230 
	C67.922249,1.000000 74.844490,1.000000 82.000000,1.000000 
	C82.000000,7.018423 82.000000,13.039836 82.000000,19.530624 
z"/>
<path fill="#ECECEC" opacity="1.000000" stroke="none" 
	d="
M19.000748,83.023018 
	C19.000584,83.767265 19.000420,84.511505 19.000130,85.627876 
	C13.074267,86.000000 7.148534,86.000000 1.000000,86.000000 
	C1.000000,80.315063 1.000000,74.627235 1.000000,68.469711 
	C2.057975,68.303467 3.115950,68.606926 4.569538,69.415161 
	C4.965152,74.107414 4.965152,78.294907 4.965152,83.023018 
	C10.191412,83.023018 14.596080,83.023018 19.000748,83.023018 
z"/>
<path fill="#ECECEC" opacity="1.000000" stroke="none" 
	d="
M79.007782,68.998093 
	C79.755836,68.998627 80.503883,68.999161 81.625969,68.999847 
	C82.000000,74.592087 82.000000,80.184166 82.000000,86.000000 
	C76.649025,86.000000 71.294968,86.000000 65.470459,86.000000 
	C64.999786,85.255951 64.999565,84.511902 65.393723,83.306419 
	C68.999474,82.583870 72.592972,82.986549 73.522247,78.663025 
	C74.666672,80.209244 75.651649,81.576782 76.636627,82.944313 
	C77.422668,81.437500 78.705170,79.988693 78.889442,78.411568 
	C79.251671,75.311455 79.003448,72.140022 79.007782,68.998093 
z"/>
<path fill="#35FCB3" opacity="1.000000" stroke="none" 
	d="
M73.362793,78.484337 
	C72.592972,82.986549 68.999474,82.583870 65.393646,82.934402 
	C59.322620,82.947411 53.646053,82.871002 47.403145,82.592056 
	C46.668159,82.191277 46.461929,82.046616 46.218117,81.955536 
	C46.139160,80.569893 46.060200,79.184258 45.977348,76.935318 
	C45.973450,69.853867 45.973450,63.635712 45.973450,57.182964 
	C42.600822,57.182964 39.825497,57.182964 36.614231,57.114155 
	C33.040150,56.549938 31.829596,57.660355 31.764099,61.050369 
	C31.624249,68.289169 30.973587,75.518105 30.532196,82.751083 
	C26.987663,82.793694 23.443132,82.836304 19.449675,82.950966 
	C14.596080,83.023018 10.191412,83.023018 4.965152,83.023018 
	C4.965152,78.294907 4.965152,74.107414 4.899308,69.457962 
	C4.875590,52.641792 4.917716,36.287590 4.896966,19.468628 
	C4.834090,14.560930 4.834090,10.117993 4.834090,4.966867 
	C10.602497,4.966867 15.838692,4.966867 21.539280,4.901129 
	C24.943222,4.934435 27.882767,5.033480 31.314968,5.596302 
	C31.823719,12.719079 31.985661,19.382133 31.800690,26.035543 
	C31.691423,29.965925 33.015263,31.727074 37.488358,30.884319 
	C46.071594,31.098408 46.096813,31.098265 46.050949,22.974798 
	C46.032192,19.652212 45.877892,16.330393 45.785255,13.008225 
	C45.958412,10.575012 46.131565,8.141799 46.357990,4.960027 
	C51.334888,4.960027 56.202030,4.960027 61.532692,4.897254 
	C65.555092,4.957591 69.113976,5.080701 73.134735,5.608543 
	C73.400253,8.992600 73.086235,11.969611 73.027603,14.951643 
	C72.750397,29.050211 72.393532,43.149940 72.373627,57.249691 
	C72.363640,64.327431 73.012108,71.406090 73.362793,78.484337 
z"/>
<path fill="#F5F5F5" opacity="1.000000" stroke="none" 
	d="
M45.355186,13.007291 
	C45.877892,16.330393 46.032192,19.652212 46.050949,22.974798 
	C46.096813,31.098265 46.071594,31.098408 37.478157,30.429688 
	C37.049313,24.280191 37.068684,18.652615 37.088055,13.025039 
	C39.700409,13.018811 42.312763,13.012584 45.355186,13.007291 
z"/>
<path fill="#D7E0DC" opacity="1.000000" stroke="none" 
	d="
M37.062187,12.577433 
	C37.068684,18.652615 37.049313,24.280191 37.040146,30.362398 
	C33.015263,31.727074 31.691423,29.965925 31.800690,26.035543 
	C31.985661,19.382133 31.823719,12.719079 31.749931,5.607533 
	C38.369629,3.728630 36.875881,8.562941 37.062187,12.577433 
z"/>
<path fill="#F5F5F5" opacity="1.000000" stroke="none" 
	d="
M37.050167,57.182964 
	C39.825497,57.182964 42.600822,57.182964 45.973450,57.182964 
	C45.973450,63.635712 45.973450,69.853867 45.874905,76.531204 
	C43.470009,76.994652 41.163654,76.998909 38.147121,76.692810 
	C37.308014,69.982628 37.179089,63.582794 37.050167,57.182964 
z"/>
<path fill="#D7E0DC" opacity="1.000000" stroke="none" 
	d="
M36.614231,57.114155 
	C37.179089,63.582794 37.308014,69.982628 37.709866,76.695282 
	C39.002167,82.478867 36.159790,83.705475 31.009151,82.835251 
	C30.973587,75.518105 31.624249,68.289169 31.764099,61.050369 
	C31.829596,57.660355 33.040150,56.549938 36.614231,57.114155 
z"/>
<path fill="#68F9C5" opacity="1.000000" stroke="none" 
	d="
M46.209076,82.197510 
	C46.461929,82.046616 46.668159,82.191277 46.940350,82.549118 
	C47.043896,82.708733 46.562553,82.760086 46.562553,82.760086 
	C46.562553,82.760086 46.200035,82.439476 46.209076,82.197510 
z"/>
<path fill="#D4DEDA" opacity="1.000000" stroke="none" 
	d="
M73.522247,78.663025 
	C73.012108,71.406090 72.363640,64.327431 72.373627,57.249691 
	C72.393532,43.149940 72.750397,29.050211 73.027603,14.951643 
	C73.086235,11.969611 73.400253,8.992600 73.566887,5.615761 
	C77.889893,4.177413 79.486252,5.922208 79.049332,10.289516 
	C78.759331,13.188254 78.994469,16.139530 79.000519,19.534451 
	C79.003662,36.021488 79.000824,52.041363 79.002884,68.529663 
	C79.003448,72.140022 79.251671,75.311455 78.889442,78.411568 
	C78.705170,79.988693 77.422668,81.437500 76.636627,82.944313 
	C75.651649,81.576782 74.666672,80.209244 73.522247,78.663025 
z"/>
</svg>